<svg width="21" height="21" viewBox="0 0 21 21" fill="none" xmlns="http://www.w3.org/2000/svg">
<path d="M17.5796 1.56201C18.6842 1.56201 19.5796 2.44517 19.5796 3.53461L19.5796 6.06201C19.5796 7.15145 18.6842 8.03461 17.5796 8.03461L14.5796 8.03461C13.475 8.03461 12.5796 7.15145 12.5796 6.06201L12.5796 3.53461C12.5796 2.44517 13.475 1.56201 14.5796 1.56201L17.5796 1.56201Z" stroke="white" stroke-width="2" stroke-linecap="round" stroke-linejoin="round"/>
<path d="M3.57959 1.56201C2.47502 1.56201 1.57959 2.44517 1.57959 3.53461L1.5796 8.87453C1.5796 9.96397 2.47503 10.5346 3.5796 10.5346L6.5796 10.5346C7.68417 10.5346 8.5796 9.96397 8.5796 8.87453L8.57959 3.53461C8.57959 2.44517 7.68416 1.56201 6.57959 1.56201L3.57959 1.56201Z" stroke="white" stroke-width="2" stroke-linecap="round" stroke-linejoin="round"/>
<path d="M17.5796 11.562C18.6842 11.562 19.5796 12.4452 19.5796 13.5346L19.5796 17.5894C19.5796 18.6788 18.6842 19.562 17.5796 19.562H14.5796C13.475 19.562 12.5796 18.6788 12.5796 17.5894L12.5796 13.5346C12.5796 12.4452 13.475 11.562 14.5796 11.562H17.5796Z" stroke="white" stroke-width="2" stroke-linecap="round" stroke-linejoin="round"/>
<path d="M3.5796 14.0894C2.47503 14.0894 1.5796 14.9726 1.5796 16.062L1.5796 17.5894C1.5796 18.6788 2.47503 19.562 3.5796 19.562H6.5796C7.68417 19.562 8.5796 18.6788 8.5796 17.5894L8.5796 16.062C8.5796 14.9726 7.68417 14.0894 6.5796 14.0894H3.5796Z" stroke="white" stroke-width="2" stroke-linecap="round" stroke-linejoin="round"/>
</svg>
