<svg width="480" height="558" viewBox="0 0 480 558" fill="none" xmlns="http://www.w3.org/2000/svg">
<path d="M216.929 548.087C229.621 560.779 250.199 560.779 262.891 548.087L469.72 341.258C482.412 328.566 482.412 307.988 469.72 295.296C457.028 282.604 436.45 282.604 423.758 295.296L239.91 479.144L56.0626 295.296C43.3705 282.604 22.7927 282.604 10.1006 295.296C-2.5914 307.988 -2.5914 328.566 10.1006 341.258L216.929 548.087ZM272.41 32.894C272.41 14.9448 257.86 0.394047 239.91 0.394047C221.961 0.394047 207.41 14.9448 207.41 32.894H272.41ZM239.91 525.106H272.41L272.41 32.894H239.91H207.41L207.41 525.106H239.91Z" fill="#DD3559"/>
</svg>
