<svg width="23" height="23" viewBox="0 0 23 23" fill="none" xmlns="http://www.w3.org/2000/svg">
<path d="M10.6118 5.65185C10.6118 6.20414 11.0595 6.65185 11.6118 6.65185C12.1641 6.65185 12.6118 6.20414 12.6118 5.65185H10.6118ZM12.6118 1.67627C12.6118 1.12398 12.1641 0.67627 11.6118 0.67627C11.0595 0.67627 10.6118 1.12398 10.6118 1.67627H12.6118ZM10.6118 21.5542C10.6118 22.1065 11.0595 22.5542 11.6118 22.5542C12.1641 22.5542 12.6118 22.1065 12.6118 21.5542H10.6118ZM12.6118 17.5786C12.6118 17.0263 12.1641 16.5786 11.6118 16.5786C11.0595 16.5786 10.6118 17.0263 10.6118 17.5786H12.6118ZM17.5752 10.6152C17.0229 10.6152 16.5752 11.0629 16.5752 11.6152C16.5752 12.1675 17.0229 12.6152 17.5752 12.6152V10.6152ZM21.5508 12.6152C22.1031 12.6152 22.5508 12.1675 22.5508 11.6152C22.5508 11.0629 22.1031 10.6152 21.5508 10.6152V12.6152ZM1.67285 10.6152C1.12057 10.6152 0.672852 11.0629 0.672852 11.6152C0.672852 12.1675 1.12057 12.6152 1.67285 12.6152V10.6152ZM5.64844 12.6152C6.20072 12.6152 6.64844 12.1675 6.64844 11.6152C6.64844 11.0629 6.20072 10.6152 5.64844 10.6152V12.6152ZM19.563 11.6152H18.563C18.563 15.4542 15.4508 18.5663 11.6118 18.5663V19.5663V20.5663C16.5554 20.5663 20.563 16.5588 20.563 11.6152H19.563ZM11.6118 19.5663V18.5663C7.77279 18.5663 4.66064 15.4542 4.66064 11.6152H3.66064H2.66064C2.66064 16.5588 6.66822 20.5663 11.6118 20.5663V19.5663ZM3.66064 11.6152H4.66064C4.66064 7.77615 7.77279 4.66401 11.6118 4.66401V3.66401V2.66401C6.66822 2.66401 2.66064 6.67158 2.66064 11.6152H3.66064ZM11.6118 3.66401V4.66401C15.4508 4.66401 18.563 7.77615 18.563 11.6152H19.563H20.563C20.563 6.67158 16.5554 2.66401 11.6118 2.66401V3.66401ZM11.6118 5.65185H12.6118V1.67627H11.6118H10.6118V5.65185H11.6118ZM11.6118 21.5542H12.6118V17.5786H11.6118H10.6118V21.5542H11.6118ZM17.5752 11.6152V12.6152H21.5508V11.6152V10.6152H17.5752V11.6152ZM1.67285 11.6152V12.6152H5.64844V11.6152V10.6152H1.67285V11.6152ZM14.5935 11.6152H13.5935C13.5935 12.7097 12.7063 13.5969 11.6118 13.5969V14.5969V15.5969C13.8108 15.5969 15.5935 13.8143 15.5935 11.6152H14.5935ZM11.6118 14.5969V13.5969C10.5174 13.5969 9.63013 12.7097 9.63013 11.6152H8.63013H7.63013C7.63013 13.8143 9.41279 15.5969 11.6118 15.5969V14.5969ZM8.63013 11.6152H9.63013C9.63013 10.5208 10.5174 9.63355 11.6118 9.63355V8.63355V7.63355C9.41279 7.63355 7.63013 9.41621 7.63013 11.6152H8.63013ZM11.6118 8.63355V9.63355C12.7063 9.63355 13.5935 10.5208 13.5935 11.6152H14.5935H15.5935C15.5935 9.41621 13.8108 7.63355 11.6118 7.63355V8.63355Z" fill="white"/>
</svg>
