<svg width="479" height="558" viewBox="0 0 479 558" fill="none" xmlns="http://www.w3.org/2000/svg">
<path d="M262.486 9.91307C249.794 -2.77897 229.216 -2.77897 216.524 9.91307L9.69529 216.742C-2.99675 229.434 -2.99675 250.012 9.69529 262.704C22.3873 275.396 42.9652 275.396 55.6572 262.704L239.505 78.856L423.353 262.704C436.045 275.396 456.623 275.396 469.315 262.704C482.007 250.012 482.007 229.434 469.315 216.742L262.486 9.91307ZM207.005 525.106C207.005 543.055 221.556 557.606 239.505 557.606C257.454 557.606 272.005 543.055 272.005 525.106L207.005 525.106ZM239.505 32.894L207.005 32.894L207.005 525.106L239.505 525.106L272.005 525.106L272.005 32.894L239.505 32.894Z" fill="#8FFBB3"/>
</svg>
